<?xml version="1.0" encoding="UTF-8"?>
<svg version="1.1" xmlns="http://www.w3.org/2000/svg" width="500" height="500">
<path d="M0 0 C46.86 0 93.72 0 142 0 C142 25.74 142 51.48 142 78 C146.95 76.02 151.9 74.04 157 72 C159.9460956 70.99732721 162.82972704 70.03796468 165.8125 69.1875 C166.51753662 68.98229736 167.22257324 68.77709473 167.94897461 68.56567383 C173.29613314 67.06655646 178.43967337 66.26477746 184 66 C183.67 64.68 183.34 63.36 183 62 C176.07 61.34 169.14 60.68 162 60 C161.92377077 49.93774181 161.95576393 39.92655555 162.4375 29.875 C162.47673584 29.00456055 162.51597168 28.13412109 162.55639648 27.23730469 C162.87605319 21.12394681 162.87605319 21.12394681 164 20 C165.48638992 19.84344973 166.97949127 19.74933057 168.47265625 19.68359375 C169.37177734 19.64169922 170.27089844 19.59980469 171.19726562 19.55664062 C172.14279297 19.51732422 173.08832031 19.47800781 174.0625 19.4375 C175.01189453 19.39431641 175.96128906 19.35113281 176.93945312 19.30664062 C179.29278176 19.20020868 181.64637099 19.09956846 184 19 C184 12.73 184 6.46 184 0 C190.93 0 197.86 0 205 0 C205.02320287 6.07915155 205.0430397 12.1581438 205.05493164 18.23730469 C205.05989949 20.29688035 205.06667606 22.35645261 205.07543945 24.41601562 C205.1289198 37.326801 204.84962707 50.11510439 204 63 C210.93 63 217.86 63 225 63 C225 62.01 225 61.02 225 60 C231.6 60 238.2 60 245 60 C245 61.65 245 63.3 245 65 C245.94875 65.12375 246.8975 65.2475 247.875 65.375 C261.62803797 67.45879363 272.21504747 71.40501582 286 76 C286 50.92 286 25.84 286 0 C333.52 0 381.04 0 430 0 C430 39.27 430 78.54 430 119 C423.07 119 416.14 119 409 119 C409 86.33 409 53.66 409 20 C383.66282147 20.32754232 383.66282147 20.32754232 358.32568359 20.65820312 C341.21664247 20.87820622 324.11089442 21.08957281 307 21 C306.72097947 29.5797758 306.50827396 38.15763422 306.37825394 46.74083614 C306.31582124 50.72738142 306.2312903 54.71080727 306.09472656 58.69555664 C305.9635589 62.54731463 305.89244216 66.3960904 305.86147308 70.24991035 C305.83943194 71.71385226 305.79637988 73.17764466 305.73123932 74.64030266 C305.53242914 79.29280907 305.59919016 83.50210061 307 88 C310.59184742 91.907158 314.44376183 94.27547809 319 97 C321.83424593 99.38413813 324.45799323 101.93089471 327.0625 104.5625 C327.73804932 105.24449463 328.41359863 105.92648926 329.10961914 106.62915039 C335.72008966 113.47843054 341.11152384 120.84861797 346 129 C346.40299316 129.67111816 346.80598633 130.34223633 347.22119141 131.03369141 C360.10642739 152.94433792 366.60061987 177.84254416 367.62890625 203.17578125 C368.15334681 207.16704997 369.82830735 210.10996849 371.7890625 213.578125 C375.53375376 221.06750751 375.28480882 229.81965785 375 238 C372.03 238 369.06 238 366 238 C365.67 242.29 365.34 246.58 365 251 C366.32 251.33 367.64 251.66 369 252 C369.33 252.99 369.66 253.98 370 255 C368.85546875 256.82421875 368.85546875 256.82421875 367.1875 258.6875 C366.64480469 259.31011719 366.10210937 259.93273437 365.54296875 260.57421875 C364 262 364 262 362 262 C361.82984375 262.67732178 361.6596875 263.35464355 361.484375 264.05249023 C359.77319038 270.62018518 357.68295902 276.83101469 355 283.0625 C354.6191626 283.95283936 354.2383252 284.84317871 353.84594727 285.76049805 C349.74869927 295.03581271 344.53574706 303.52565077 339 312 C341.97 312 344.94 312 348 312 C348.33 323.55 348.66 335.1 349 347 C355.6 347 362.2 347 369 347 C369 353.6 369 360.2 369 367 C375.6 367 382.2 367 389 367 C389 360.4 389 353.8 389 347 C395.6 347 402.2 347 409 347 C409 340.4 409 333.8 409 327 C415.93 327 422.86 327 430 327 C430 347.13 430 367.26 430 388 C423.07 388 416.14 388 409 388 C409 381.4 409 374.8 409 368 C402.4 368 395.8 368 389 368 C389 374.6 389 381.2 389 388 C368.21 388 347.42 388 326 388 C326 381.4 326 374.8 326 368 C319.4 368 312.8 368 306 368 C306 361.07 306 354.14 306 347 C299.31015544 347.82477536 293.79160996 349.34245493 287.75 352.3125 C276.25508851 357.92524406 264.62626171 361.34177771 252.08105469 363.65698242 C250.04185474 364.04541153 248.01852511 364.51546934 246 365 C245.67 365.66 245.34 366.32 245 367 C245.90093384 366.99214478 245.90093384 366.99214478 246.82006836 366.98413086 C249.52586838 366.96341986 252.23165177 366.95035875 254.9375 366.9375 C255.88302734 366.92912109 256.82855469 366.92074219 257.80273438 366.91210938 C259.15141602 366.90727539 259.15141602 366.90727539 260.52734375 366.90234375 C261.77632446 366.89448853 261.77632446 366.89448853 263.05053711 366.88647461 C265 367 265 367 266 368 C266 374.6 266 381.2 266 388 C279.2 388 292.4 388 306 388 C306 394.6 306 401.2 306 408 C292.8 408 279.6 408 266 408 C266 415.26 266 422.52 266 430 C252.47 430 238.94 430 225 430 C225 422.74 225 415.48 225 408 C238.2 408 251.4 408 265 408 C265 401.4 265 394.8 265 388 C258.4 388 251.8 388 245 388 C245 381.4 245 374.8 245 368 C231.8 368 218.6 368 205 368 C205 374.6 205 381.2 205 388 C198.4 388 191.8 388 185 388 C184.67 401.53 184.34 415.06 184 429 C177.07 429 170.14 429 163 429 C163 415.8 163 402.6 163 389 C165.23647631 387.88176185 166.64891529 387.80603939 169.1328125 387.68359375 C169.85871582 387.64548584 170.58461914 387.60737793 171.33251953 387.56811523 C172.71479736 387.50346069 172.71479736 387.50346069 174.125 387.4375 C177.05375 387.293125 179.9825 387.14875 183 387 C183.33 380.73 183.66 374.46 184 368 C176.74 368 169.48 368 162 368 C162 365.03 162 362.06 162 359 C161.38253906 358.82984375 160.76507813 358.6596875 160.12890625 358.484375 C159.28199219 358.24203125 158.43507812 357.9996875 157.5625 357.75 C156.73878906 357.51796875 155.91507813 357.2859375 155.06640625 357.046875 C150.94045101 355.63826863 146.98401699 353.77067422 143 352 C142.67 377.74 142.34 403.48 142 430 C95.14 430 48.28 430 0 430 C0 390.73 0 351.46 0 311 C6.93 311 13.86 311 21 311 C21 343.01 21 375.02 21 408 C54.33 408 87.66 408 122 408 C122.04125 396.78 122.0825 385.56 122.125 374 C122.16383301 370.47054688 122.20266602 366.94109375 122.24267578 363.3046875 C122.22949326 360.11274459 122.22949326 360.11274459 122.20309448 356.92089844 C122.19772925 355.51036752 122.21184405 354.09967372 122.24191284 352.68945312 C122.56042907 343.9297373 122.56042907 343.9297373 118.78387451 336.32495117 C116.27700547 334.31383107 113.75565606 332.64476542 111 331 C109.29220027 329.37550757 107.62449243 327.70779973 106 326 C105.35804688 325.401875 104.71609375 324.80375 104.0546875 324.1875 C89.86055159 310.73521788 79.34966706 292.4329887 73 274 C71.85402344 273.91363281 70.70804687 273.82726562 69.52734375 273.73828125 C55.7096468 272.51464116 55.7096468 272.51464116 52.0625 269.25 C49.33270972 266.77470107 49.33270972 266.77470107 46.76171875 267.015625 C43.2391877 267.69493114 39.88529753 268.71220978 36.4765625 269.8203125 C22.40157322 274.17383771 7.55241882 273.0097843 -5.625 266.375 C-20.0991435 257.88656138 -27.94346789 245.75464962 -33 230 C-36.9640333 214.77508228 -33.58465446 197.93938604 -25.75390625 184.59375 C-17.08600465 171.77529418 -5.98164285 163.86571298 9 160 C22.63548018 157.72741997 36.33141342 159.35818563 48.04296875 166.98046875 C53.52215223 170.93500987 58.34375524 175.01288816 62.59765625 180.2734375 C63.97269342 181.9663802 65.43354342 183.48467405 67 185 C67.00257812 184.44957031 67.00515625 183.89914063 67.0078125 183.33203125 C67.7424989 167.53627359 73.6583347 151.85046802 81 138 C81.34434082 137.33629395 81.68868164 136.67258789 82.04345703 135.98876953 C86.83193752 126.81892632 92.08762336 118.7553494 99 111 C99.71929687 110.14921875 100.43859375 109.2984375 101.1796875 108.421875 C113.857066 93.71431133 113.857066 93.71431133 122 91 C122 67.57 122 44.14 122 20 C88.67 20 55.34 20 21 20 C21 52.67 21 85.34 21 119 C14.07 119 7.14 119 0 119 C0 79.73 0 40.46 0 0 Z M180 87 C178.97181152 87.20882812 178.97181152 87.20882812 177.92285156 87.421875 C167.70547945 89.60158105 158.36712147 93.49122756 149 98 C148.01128906 98.47308594 147.02257812 98.94617188 146.00390625 99.43359375 C119.90903306 112.80295548 101.89554273 137.07114901 92.25 164.3125 C80.22780289 202.61294552 81.17256437 247.28837065 99.7421875 283.38671875 C114.82664575 311.38025278 138.85154944 330.30942661 169 340 C205.59523759 350.6906392 250.38548562 349.65790494 284.29296875 331.125 C285.53159948 330.42184435 286.7673201 329.71353642 288 329 C288.60924316 328.65066406 289.21848633 328.30132812 289.84619141 327.94140625 C316.77293664 312.24671407 334.15880772 286.13403291 342.30615234 256.296875 C352.16597651 217.34528604 348.21557095 174.05685923 328 139 C309.17975317 110.8214286 282.32514966 93.26184794 249.29882812 86.45654297 C226.77009905 81.98237948 202.48867367 82.40522035 180 87 Z M-6.48828125 191.875 C-13.1728062 201.65530789 -14.02408565 212.4934197 -13 224 C-10.84034948 233.85874363 -5.60317802 243.02681733 2.8046875 248.78125 C10.91394361 253.28318578 20.17332393 254.50358747 29.125 252 C30.07375 251.67 31.0225 251.34 32 251 C32 246.27484969 31.04568446 245.24076368 28.25 241.5625 C27.55390625 240.63566406 26.8578125 239.70882812 26.140625 238.75390625 C24.1166951 236.15012781 22.06922364 233.5678879 20 231 C37.72340426 230.23404255 37.72340426 230.23404255 44.9375 236.75 C45.4634375 237.36875 45.4634375 237.36875 46 238 C49.08555502 237.36364436 49.08555502 237.36364436 49.9140625 235.1796875 C53.94085374 222.12580381 55.06918464 208.01547996 48.7109375 195.453125 C42.82540441 186.07404018 35.48964437 181.33386902 24.8828125 178.41796875 C12.88531217 175.75462324 0.81230801 182.67740723 -6.48828125 191.875 Z M66 246 C65.10565843 247.40453643 64.23506808 248.82421869 63.375 250.25 C62.88773437 251.03890625 62.40046875 251.8278125 61.8984375 252.640625 C60.75020646 254.92885019 60.75020646 254.92885019 61.625 257.03125 C63.16923322 259.2423112 64.8205788 261.24508756 66.625 263.25 C67.57246094 264.30960937 67.57246094 264.30960937 68.5390625 265.390625 C69.02117187 265.92171875 69.50328125 266.4528125 70 267 C71.06140282 263.81579155 70.95892549 262.91540891 70.22265625 259.76953125 C69.94711914 258.56586914 69.94711914 258.56586914 69.66601562 257.33789062 C69.46685547 256.50451172 69.26769531 255.67113281 69.0625 254.8125 C68.86720703 253.96751953 68.67191406 253.12253906 68.47070312 252.25195312 C67.98758736 250.166307 67.49472096 248.08292386 67 246 C66.67 246 66.34 246 66 246 Z M328 348 C326.27706865 352.46334184 325.77759209 356.10201231 325.875 360.875 C325.91625 362.89625 325.9575 364.9175 326 367 C333.26 367 340.52 367 348 367 C348 360.4 348 353.8 348 347 C337.94696647 346.84408991 337.94696647 346.84408991 328 348 Z M185 364 C185 364.99 185 365.98 185 367 C191.6 367 198.2 367 205 367 C205 366.67 205 366.34 205 366 C198.4 365.34 191.8 364.68 185 364 Z " fill="#010101" transform="translate(34,35)"/>
<path d="M0 0 C20.13 0 40.26 0 61 0 C61.02094499 8.05916691 61.04098314 16.11823579 61.05175018 24.17740631 C61.05704008 27.93005024 61.06411391 31.68267175 61.07543945 35.43530273 C61.08627141 39.04681687 61.09227749 42.65830921 61.09487724 46.26983833 C61.09673094 47.65060329 61.10035049 49.031367 61.10573006 50.41212273 C61.11294447 52.33975952 61.11340809 54.26741807 61.11352539 56.19506836 C61.115746 57.29427109 61.11796661 58.39347382 61.12025452 59.52598572 C61 62 61 62 60 63 C58.1281906 63.09386381 56.2528194 63.11743804 54.37866211 63.11352539 C53.1606189 63.11340454 51.94257568 63.11328369 50.68762207 63.11315918 C49.39723022 63.10804321 48.10683838 63.10292725 46.77734375 63.09765625 C45.59885864 63.09664917 44.42037354 63.09564209 43.20617676 63.09460449 C38.78327468 63.08935316 34.36038641 63.07539205 29.9375 63.0625 C20.058125 63.041875 10.17875 63.02125 0 63 C0 42.21 0 21.42 0 0 Z " fill="#000000" transform="translate(75,75)"/>
<path d="M0 0 C0.90847183 -0.00315216 1.81694366 -0.00630432 2.75294495 -0.009552 C4.22476479 -0.00651566 4.22476479 -0.00651566 5.72631836 -0.00341797 C6.74157089 -0.00437469 7.75682343 -0.00533142 8.80284119 -0.00631714 C10.95563824 -0.00699822 13.10843735 -0.00514895 15.26123047 -0.00097656 C18.52893811 0.00433404 21.79650585 -0.00090388 25.06420898 -0.00732422 C27.15991241 -0.00666267 29.25561575 -0.00537992 31.35131836 -0.00341797 C32.31836197 -0.0054422 33.28540558 -0.00746643 34.28175354 -0.009552 C35.2122905 -0.00639984 36.14282745 -0.00324768 37.1015625 0 C37.90525772 0.00079559 38.70895294 0.00159119 39.53700256 0.00241089 C43.87154786 0.18794494 48.1866791 0.69769623 52.50366211 1.12939453 C52.50366211 21.25939453 52.50366211 41.38939453 52.50366211 62.12939453 C32.37366211 62.12939453 12.24366211 62.12939453 -8.49633789 62.12939453 C-9.67757716 32.59841285 -9.67757716 32.59841285 -9.68383789 21.50439453 C-9.69608398 20.29267578 -9.70833008 19.08095703 -9.72094727 17.83251953 C-9.73990403 6.33208279 -9.73990403 6.33208279 -7.49633789 1.12939453 C-4.66630915 0.18605162 -2.93050645 0.00292121 0 0 Z " fill="#000000" transform="translate(369.496337890625,74.87060546875)"/>
<path d="M0 0 C20.13 0 40.26 0 61 0 C61 20.13 61 40.26 61 61 C40.87 61 20.74 61 0 61 C0 40.87 0 20.74 0 0 Z " fill="#000000" transform="translate(75,362)"/>
<path d="M0 0 C4.62633229 3.99516359 7.72915586 7.31520984 10.25390625 12.94921875 C-4.43936449 17.96643315 -4.43936449 17.96643315 -10.74609375 16.94921875 C-12.52038489 15.99298084 -14.26863062 14.98766525 -15.99609375 13.94921875 C-21.97212615 10.43341665 -26.93456027 9.96899807 -33.74609375 10.94921875 C-39.84101314 12.86798967 -43.74584159 17.33827664 -46.7890625 22.83203125 C-49.36132073 28.79773812 -49.86525691 35.07956987 -48.0546875 41.33984375 C-45.41921261 47.8237736 -41.67151179 53.0196877 -35.80859375 56.88671875 C-28.24072532 59.51230576 -21.76255818 57.16196433 -14.74609375 53.94921875 C-14.06160156 53.418125 -13.37710938 52.88703125 -12.671875 52.33984375 C-9.2664281 49.88073808 -5.77022222 50.37612305 -1.74609375 50.94921875 C1.75424651 51.95495032 5.11407955 53.0865041 8.25390625 54.94921875 C9.25390625 57.94921875 9.25390625 57.94921875 8.42578125 59.74609375 C1.43463318 69.34931913 -8.42207139 74.04163029 -19.74609375 76.63671875 C-32.04907464 77.91827926 -44.31813847 75.71749027 -54.24609375 68.0078125 C-61.48499095 61.81381564 -68.91400443 54.08564538 -70.06835938 44.18530273 C-70.84647106 16.48316946 -70.84647106 16.48316946 -59.99609375 4.57421875 C-44.12080437 -10.0237485 -17.89982129 -13.36757636 0 0 Z " fill="#010101" transform="translate(489.74609375,232.05078125)"/>
<path d="M0 0 C3.11246607 2.21258765 6.0729548 4.54959264 9 7 C9.969375 7.7425 10.93875 8.485 11.9375 9.25 C14.31700796 11.26897645 15.81390828 12.95396863 16.37109375 16.0859375 C16.50038828 20.54279615 16.49125561 22.3794666 13.625 26 C9.52494306 29.12385291 7.19509458 29.52112117 2 29 C-0.38707356 27.38030469 -2.32834212 25.85480318 -4.4375 23.9375 C-19.44517337 11.20060289 -35.80502292 8.72979634 -55 10 C-66.56741797 11.91635867 -76.4690102 17.86305842 -85.25 25.4375 C-88.27259037 27.93611002 -90.3380178 29.54941866 -94.3125 29.75 C-98.46975347 28.90445692 -100.21656122 28.19276802 -103 25 C-104.48410003 21.45106514 -105.24959952 19.16479778 -104.4375 15.375 C-102.63083776 12.39007978 -100.58270537 10.35313156 -98 8 C-97.54109375 7.54882812 -97.0821875 7.09765625 -96.609375 6.6328125 C-70.95401995 -17.33810005 -28.78278153 -18.56825934 0 0 Z " fill="#010101" transform="translate(294,312)"/>
<path d="M0 0 C2.9916738 2.24375535 4.57201141 3.78187864 5.8125 7.3125 C5.874375 7.869375 5.93625 8.42625 6 9 C6.66 9 7.32 9 8 9 C8 9.66 8 10.32 8 11 C8.57878906 11.28746094 9.15757812 11.57492188 9.75390625 11.87109375 C11.14744651 12.5714992 12.5323781 13.28969239 13.90234375 14.03515625 C23.14869852 18.70270194 32.86385489 19.06656621 42.68359375 15.96484375 C45.58717929 14.75542448 47.74522411 13.18204118 50 11 C53.20173254 9.39913373 56.52577059 9.50082911 60 10 C62.8100346 11.79363911 64.50940468 13.01880935 66 16 C66.54711674 20.61141254 66.69555038 23.75001295 63.875 27.5625 C56.55270195 35.10983322 45.26104492 39.13422434 35 40 C34.278125 40.06960938 33.55625 40.13921875 32.8125 40.2109375 C18.77764142 40.88172118 5.11662207 35.66693619 -5.4375 26.625 C-10.46250622 21.79419692 -15.11427883 17.06553355 -15.5625 9.8125 C-14.94119438 5.60142855 -14.02154194 3.93267306 -11 1 C-7.52200335 -0.73899832 -3.794318 -0.58979036 0 0 Z " fill="#010101" transform="translate(285,240)"/>
<path d="M0 0 C2.87029869 1.79393668 4.49131638 2.98263276 6 6 C6.78339468 11.48376279 6.1554868 14.37123454 3.0625 19 C-5.78961865 30.54855559 -16.98768949 37.4944581 -31.54296875 39.484375 C-46.33372041 40.56237191 -59.28434333 38.59463303 -71.21875 29.265625 C-74.04336192 26.36107123 -75.35020522 23.94348938 -75.625 19.875 C-74.94390356 15.65220205 -74.03595107 13.94665839 -71 11 C-67.76384441 9.3819222 -64.49883496 9.41686084 -61 10 C-59.17841102 11.08707729 -57.63141555 12.35767558 -55.98046875 13.6875 C-49.51435527 17.97273497 -40.7851051 18.96966888 -33.33984375 17.4609375 C-23.59068118 15.07285192 -18.74175774 11.09616383 -12.734375 3.14453125 C-9.37819262 -1.0053429 -5.00435404 -0.64823239 0 0 Z " fill="#010101" transform="translate(224,240)"/>
<path d="M0 0 C13.53 0 27.06 0 41 0 C41 6.6 41 13.2 41 20 C34.07 20 27.14 20 20 20 C20 26.6 20 33.2 20 40 C13.4 40 6.8 40 0 40 C0 26.8 0 13.6 0 0 Z " fill="#000000" transform="translate(259,35)"/>
<path d="M0 0 C1.16337891 -0.00128906 2.32675781 -0.00257813 3.52539062 -0.00390625 C4.74291016 -0.00003906 5.96042969 0.00382812 7.21484375 0.0078125 C8.40529297 0.00394531 9.59574219 0.00007813 10.82226562 -0.00390625 C17.67474133 0.00362808 24.34760913 0.32165208 31.15234375 1.1328125 C31.15234375 7.7328125 31.15234375 14.3328125 31.15234375 21.1328125 C17.62234375 21.1328125 4.09234375 21.1328125 -9.84765625 21.1328125 C-11.00239835 13.04961782 -11.00239835 13.04961782 -11.03515625 8.8828125 C-11.04933594 8.05265625 -11.06351562 7.2225 -11.078125 6.3671875 C-10.84765625 4.1328125 -10.84765625 4.1328125 -8.84765625 1.1328125 C-5.65449167 0.06842431 -3.35480802 0.00359765 0 0 Z " fill="#020202" transform="translate(370.84765625,442.8671875)"/>
<path d="M0 0 C6.93 0 13.86 0 21 0 C21 6.6 21 13.2 21 20 C14.07 20 7.14 20 0 20 C0 13.4 0 6.8 0 0 Z " fill="#010101" transform="translate(279,75)"/>
<path d="M0 0 C2.3925 -0.020625 4.785 -0.04125 7.25 -0.0625 C8.37003418 -0.07615601 8.37003418 -0.07615601 9.51269531 -0.09008789 C12.93693446 -0.10436323 15.64725351 0.16181338 19 1 C19 7.6 19 14.2 19 21 C15.23508833 22.25497056 11.72793525 22.10661648 7.8125 22.0625 C5.234375 22.041875 2.65625 22.02125 0 22 C0 14.74 0 7.48 0 0 Z " fill="#010101" transform="translate(423,443)"/>
</svg>
